<?xml version="1.0" encoding="UTF-8" standalone="no"?>
<svg width="80px" height="56px" viewBox="0 0 80 56" version="1.1" xmlns="http://www.w3.org/2000/svg" xmlns:xlink="http://www.w3.org/1999/xlink">
    <!-- Generator: Sketch 47.1 (45422) - http://www.bohemiancoding.com/sketch -->
    <title>Shape@2x</title>
    <desc>Created with Sketch.</desc>
    <defs></defs>
    <g id="Page-1" stroke="none" stroke-width="1" fill="none" fill-rule="evenodd">
        <g id="My-task_empty" transform="translate(-800.000000, -627.000000)" fill-rule="nonzero" fill="#EBEBEB">
            <g id="Group" transform="translate(270.000000, 110.000000)">
                <g id="Group-11" transform="translate(0.000000, 220.000000)">
                    <g id="empty" transform="translate(478.000000, 297.000000)">
                        <path d="M130.2,27.4573372 C131.2,29.2138088 132,32.2477142 132,34.2437046 L132,52.3672975 C132,54.3632879 130.36,56 128.36,56 L55.64,56 C53.64,56 52,54.3632879 52,52.3672975 L52,34.2037848 C52,32.2077944 52.8,29.173889 53.8,27.4174174 L64.72,3.15366484 C65.72,1.39719328 68.16,0 70.16,0 L113.8,0 C115.8,0 118.24,1.39719328 119.24,3.15366484 L130.2,27.4573372 Z M67.88,4.9500562 L56.96,29.2537286 C56.88,29.4134078 56.76,29.6529267 56.64,29.9722851 C56.6,30.0122049 56.6,30.0920446 56.6,30.1319644 C56.6,30.3714832 56.8,30.5710823 57.04,30.5710823 L80.32,30.5710823 C81.2,30.5710823 81.96,31.2097992 82.12,32.088035 C82.84,36.9183317 87.12,40.5510343 92,40.5510343 C96.88,40.5510343 101.16,36.9183317 101.88,32.088035 C102,31.2097992 102.8,30.5710823 103.68,30.5710823 L126.96,30.5710823 C127.36,30.4513228 127.48,30.1718842 127.36,29.9323653 C127.24,29.6130069 127.12,29.373488 127.04,29.2138088 L116.12,4.9500562 C115.76,4.35125908 114.52,3.63270254 113.84,3.63270254 L70.2,3.63270254 C69.48,3.63270254 68.24,4.35125908 67.88,4.9500562 Z" id="Shape"></path>
                    </g>
                </g>
            </g>
        </g>
    </g>
</svg>